<?xml version="1.0" encoding="utf-8"?>
<!-- Generator: Adobe Illustrator 12.0.0, SVG Export Plug-In . SVG Version: 6.00 Build 51448)  -->
<!DOCTYPE svg PUBLIC "-//W3C//DTD SVG 1.1//EN" "http://www.w3.org/Graphics/SVG/1.1/DTD/svg11.dtd" [
	<!ENTITY ns_svg "http://www.w3.org/2000/svg">
	<!ENTITY ns_xlink "http://www.w3.org/1999/xlink">
]>
<svg  version="1.1"
	 id="svg2" xmlns:dc="http://purl.org/dc/elements/1.1/" xmlns:cc="http://web.resource.org/cc/" xmlns:inkscape="http://www.inkscape.org/namespaces/inkscape" xmlns:sodipodi="http://sodipodi.sourceforge.net/DTD/sodipodi-0.dtd" sodipodi:version="0.32" xmlns:svg="http://www.w3.org/2000/svg" xmlns:rdf="http://www.w3.org/1999/02/22-rdf-syntax-ns#" sodipodi:docname="Blank US Map.svg" inkscape:version="0.44" sodipodi:docbase="/home/theshibboleth/Desktop/Wiki/election maps"
	 xmlns="&ns_svg;" xmlns:xlink="&ns_xlink;" width="1368" height="936" viewBox="0 0 1368 936"
	 overflow="visible" enable-background="new 0 0 1368 936" xml:space="preserve">
<sodipodi:namedview  fill="#d3d3d3" inkscape:window-x="0" inkscape:window-y="25" showguides="true" inkscape:current-layer="svg2" inkscape:guide-bbox="true" showgrid="false" inkscape:window-height="796" inkscape:window-width="1430" inkscape:pageshadow="2" inkscape:pageopacity="0.0" id="base" pagecolor="#ffffff" borderopacity="1.0" bordercolor="#666666" inkscape:cx="374.60758" inkscape:zoom="0.99999999" inkscape:cy="340.17222">
	</sodipodi:namedview>
<path id="HI" fill="#D3D3D3" d="M244.485,558.1l2.028-3.719l2.366-0.338l0.339,0.847l-2.199,3.21H244.485L244.485,558.1z
	 M255.134,554.212l6.422,2.704l2.199-0.337l1.691-4.058l-0.676-3.55l-4.395-0.507l-4.226,1.858L255.134,554.212z M287.25,564.69
	l3.887,5.747l2.537-0.338l1.183-0.506l1.521,1.353l3.888-0.17l1.014-1.52l-3.043-1.859l-2.028-3.888l-2.198-3.721l-6.086,3.042
	L287.25,564.69z M308.378,573.988l1.352-2.027l4.901,1.014l0.676-0.505l6.423,0.676l-0.338,1.352l-2.705,1.521l-4.563-0.338
	L308.378,573.988z M313.956,579.397l2.028,4.057l3.211-1.184l0.338-1.689l-1.691-2.198l-3.887-0.337L313.956,579.397
	L313.956,579.397z M321.224,578.214l2.367-3.042l4.901,2.535l4.564,1.184l4.563,2.875v2.026l-3.72,1.858l-5.071,1.014l-2.536-1.521
	L321.224,578.214z M338.636,594.439l1.69-1.353l3.55,1.689l7.945,3.72l3.55,2.199l1.69,2.535l2.029,4.562l4.226,2.706l-0.338,1.353
	l-4.057,3.379l-4.395,1.521l-1.521-0.676l-3.211,1.858l-2.535,3.381l-2.366,3.041l-1.859-0.17l-3.719-2.703l-0.338-4.731
	l0.676-2.537l-1.689-5.914l-2.2-1.859l-0.169-2.705l2.369-1.014l2.197-3.212l0.507-1.016l-1.691-1.858L338.636,594.439z"/>
<path id="AK" fill="#D3D3D3" d="M166.056,480.063l-0.337,89.247l1.69,1.015l3.211,0.168l1.521-1.183h2.704l0.168,3.042l7.269,7.099
	l0.506,2.705l3.55-2.027l0.676-0.17l0.339-3.21l1.521-1.69l1.184-0.168l2.028-1.521l3.21,2.198l0.676,3.042l2.028,1.182l1.184,2.538
	l4.057,1.857l3.55,6.255l2.874,4.057l2.366,2.873l1.521,3.888l5.24,1.859l5.41,2.197l1.015,4.564l0.505,3.211l-1.014,3.549
	l-1.858,2.367l-1.69-0.846l-1.521-3.211l-2.874-1.521l-1.859-1.184l-0.845,0.847l1.521,2.873l0.167,3.89l-1.183,0.504l-2.027-2.025
	l-2.199-1.353l0.507,1.689l1.352,1.858l-0.846,0.847c0,0-0.845-0.339-1.352-1.017c-0.507-0.675-2.199-3.55-2.199-3.55l-1.014-2.367
	c0,0-0.338,1.354-1.016,1.016c-0.675-0.34-1.352-1.521-1.352-1.521l1.859-2.028l-1.521-1.521v-5.239h-0.845l-0.847,3.551
	l-1.184,0.506l-1.014-3.889l-0.676-3.888l-0.845-0.507l0.338,5.916v1.184l-1.521-1.353l-3.721-6.253l-2.197-0.507l-0.676-3.888
	l-1.69-3.042l-1.69-1.184v-2.368l2.198-1.353l-0.507-0.337l-2.705,0.675l-3.55-2.535l-2.705-3.043l-5.072-2.703l-4.227-2.706
	l1.352-3.38v-1.69l-1.858,1.69l-3.042,1.184l-3.887-1.184l-5.917-2.536h-5.748l-0.675,0.507l-6.762-4.057l-2.197-0.338l-2.874-6.085
	l-3.719,0.338l-3.72,1.521l0.507,4.731l1.184-3.042l1.014,0.336l-1.521,4.564l3.379-2.874l0.676,1.69l-4.057,4.564l-1.353-0.338
	l-0.506-2.029l-1.352-0.845l-1.352,1.183l-2.874-1.859l-3.212,2.199l-1.858,2.198l-3.55,2.2l-4.901-0.17l-0.507-2.198l3.887-0.676
	v-1.354l-2.366-0.676l1.014-2.535l2.366-4.057v-1.858l0.169-0.846l4.564-2.368l1.014,1.353h2.875l-1.352-2.704l-3.887-0.338
	l-5.24,2.873l-2.537,3.551l-1.858,2.704l-1.183,2.367l-4.394,1.521l-3.212,2.705l-0.337,1.689l2.366,1.016l0.846,2.197l-2.874,3.379
	l-6.76,4.396l-8.115,4.396l-2.198,1.183l-5.578,1.183l-5.578,2.367l1.858,1.352l-1.521,1.521l-0.506,1.185l-2.874-1.016l-3.38,0.169
	l-0.845,2.367h-1.014l0.337-2.536l-3.718,1.353l-3.043,1.015l-3.55-1.353l-3.042,2.027h-3.381l-2.198,1.352l-1.69,0.847
	l-2.199-0.337l-2.704-1.185l-2.366,0.676l-1.014,1.016l-1.69-1.184v-2.028l3.211-1.352l6.592,0.676l4.564-1.69l2.198-2.197
	l3.042-0.676l1.859-0.846l2.873,0.17l1.69,1.352l1.016-0.338l2.366-2.873l3.211-1.015l3.55-0.676l1.352-0.339l0.676,0.508h0.846
	l1.352-3.888l4.226-1.521l2.027-3.889l2.367-4.731l1.691-1.521l0.336-2.705l-1.689,1.354l-3.55,0.676l-0.676-2.536l-1.352-0.338
	l-1.015,1.015l-0.169,3.043l-1.521-0.17l-1.521-6.084l-1.352,1.353l-1.183-0.507l-0.338-2.027l-4.226,0.168l-2.198,1.184
	l-2.704-0.338l1.521-1.52l0.506-2.707l-0.675-2.025l1.521-1.014l1.352-0.17l-0.675-1.859v-4.569l-1.015-1.015l-0.845,1.521h-6.423
	l-1.521-1.353l-0.676-4.057l-2.199-3.72v-1.014l2.199-0.847l0.168-2.198l1.184-1.185l-0.846-0.504l-1.352,0.504l-1.183-2.873
	l1.014-5.24l4.732-3.381l2.706-1.688l2.027-3.89l2.873-1.353l2.704,1.183l0.338,2.538l2.536-0.338l3.38-2.536l1.69,0.676
	l1.014,0.676h1.691l2.366-1.353l0.845-4.563c0,0,0.338-3.042,1.016-3.552c0.675-0.505,1.014-1.014,1.014-1.014l-1.182-2.028
	l-2.705,0.847l-3.38,0.846l-2.029-0.507l-3.709-1.858l-5.241-0.168l-3.719-3.889l0.507-4.058l0.675-2.535l-2.198-1.859l-2.028-3.888
	l0.507-0.846l7.1-0.507h2.198l1.016,1.015h0.675l-0.169-1.689l4.057-0.675l2.705,0.337l1.521,1.185l-1.521,2.197l-0.506,1.521
	l2.875,1.689l5.239,1.858l1.859-1.015l-2.368-4.564l-1.014-3.379l1.014-0.847l-3.55-2.026l-0.507-1.184l0.507-1.689l-0.846-4.057
	l-3.042-4.902l-2.536-4.395l3.042-2.026h3.38l1.858,0.675l4.395-0.169l3.888-3.718l1.184-3.213l3.888-2.535l1.69,1.014l2.873-0.675
	l3.889-2.199l1.184-0.168l1.014,0.846l4.732-0.168l2.874-3.211h1.183l3.72,2.536l2.028,2.198l-0.506,1.183l0.675,1.183l1.69-1.688
	l4.057,0.337l0.338,3.889l2.029,1.521l7.436,0.676l6.594,4.396l1.521-1.015l5.408,2.704l2.198-0.676l2.029-0.846l5.07,2.027
	L166.056,480.063z M45.708,510.318l2.198,5.578l-0.169,1.015l-3.042-0.337l-1.859-4.226l-1.859-1.521H38.44l-0.169-2.705
	l1.859-2.536l1.182,2.536l1.521,1.521L45.708,510.318z M43.002,545.308l3.887,0.847l3.887,1.015l0.846,1.015l-1.689,3.888
	l-3.212-0.168l-3.55-3.72L43.002,545.308z M21.366,530.604l1.183,2.705l1.184,1.689l-1.184,0.847l-2.198-3.213v-2.026
	L21.366,530.604L21.366,530.604z M7,607.004l3.55-2.366l3.55-1.016l2.705,0.338l0.507,1.689l2.028,0.507l2.027-2.028l-0.337-1.689
	l2.873-0.675l3.042,2.705l-1.183,1.857l-4.563,1.185l-2.875-0.507l-3.888-1.184l-4.563,1.521l-1.691,0.337L7,607.004z
	 M58.215,602.271l1.691,2.027l2.198-1.689l-1.521-1.353L58.215,602.271z M61.258,605.483l1.184-2.367l2.198,0.337l-0.846,2.027
	h-2.535V605.483z M85.935,603.455l1.521,1.859l1.015-1.185l-0.845-2.027L85.935,603.455z M95.064,590.439l1.183,6.083l3.042,0.847
	l5.239-3.043l4.564-2.704l-1.69-2.536l0.507-2.535l-2.199,1.353l-3.042-0.847l1.69-1.184l2.028,0.847l4.057-1.858l0.506-1.521
	l-2.535-0.848l0.846-2.025l-2.875,2.025l-4.902,3.721l-5.07,3.043L95.064,590.439z M139.349,569.647l2.536-1.521l-1.015-1.859
	l-1.858,1.015L139.349,569.647z"/>
<path id="FL" sodipodi:nodetypes="cccccccccccccccccccccccccccccccccccccccccccccccccccccccccccccccccccccccccccccccccccccccccccccccccccccccccccccccccccccccccccccccccccccccccccccc" fill="#D3D3D3" d="
	M790.602,471.522l2.369,7.651l3.898,10.187l5.578,9.804l3.889,6.593l5.07,5.746l4.227,3.888l1.689,3.043l-1.183,1.352l-0.848,1.353
	l3.043,7.777l3.042,3.04l2.705,5.578l3.719,6.086l4.732,8.62l1.352,7.944l0.507,12.509l0.675,1.859l-0.338,3.55l-2.535,1.352
	l0.337,2.028l-0.676,2.026l0.337,2.537l0.507,2.027l-2.874,3.38l-3.211,1.521l-4.057,0.168l-1.521,1.69l-2.535,1.015l-1.353-0.506
	l-1.184-1.016l-0.338-3.042l-0.848-3.55l-3.549-5.41l-3.721-2.366l-4.057-0.337l-0.846,1.352l-3.211-4.564l-0.675-3.719
	l-2.705-4.227l-1.859-1.184l-1.689,2.199l-1.857-0.338l-2.2-5.24l-3.042-4.057l-3.04-5.578l-2.707-3.211l-3.719-3.889l2.198-2.536
	l3.38-5.746l-0.17-1.69l-4.731-1.015l-1.689,0.676l0.338,0.675l2.705,1.015l-1.521,4.732l-0.847,0.507l-1.858-4.226l-1.352-5.072
	l-0.338-2.873l1.521-4.902v-9.973l-3.212-3.89l-1.352-3.21l-5.409-1.354l-2.027-0.675l-1.69-2.705l-3.551-1.689l-1.183-3.551
	l-2.874-1.015l-2.537-3.888l-4.394-1.521l-3.042-1.521h-2.704l-4.228,0.845l-0.167,2.028l0.846,1.014l-0.507,1.184l-3.211-0.169
	l-3.889,3.721l-3.719,2.026h-4.058l-3.38,1.353l-0.337-2.874l-1.689-2.026l-3.042-1.184l-1.69-1.521l-8.451-4.057l-7.946-1.858
	l-4.562,0.676l-6.254,0.507l-6.252,2.198l-3.638,0.64l-0.248-8.417l-2.705-2.027l-1.858-1.859l0.337-3.21l10.651-1.354l26.707-3.041
	l7.099-0.675l5.684,0.293l2.704,4.057l1.521,1.521l8.469,0.539l11.312-0.676l22.494-1.354l5.692-0.704l4.786,0.028l0.168,3.043
	l3.999,0.846l0.338-5.026l-1.691-4.733l0.999-0.766l5.346,0.476L790.602,471.522z M803.719,609.962l2.535-0.676l1.353-0.253
	l1.521-2.452l2.451-1.688l1.352,0.504l1.775,0.339l0.421,1.099l-3.635,1.268l-4.395,1.521l-2.451,1.268L803.719,609.962z
	 M817.832,604.722l1.269,1.099l2.874-2.198l5.578-4.395l3.887-4.057l2.62-6.93l1.014-1.774l0.17-3.551l-0.761,0.508l-1.017,2.958
	l-1.521,4.815l-3.379,5.493l-4.564,4.395l-3.55,2.028L817.832,604.722z"/>
<path id="SC" fill="#D3D3D3" d="M796.699,437.469l-1.855,1.016l-2.705-1.353l-0.676-2.198l-1.353-3.72l-2.367-2.198l-2.704-0.675
	l-1.691-5.073l-2.873-6.253l-4.395-2.026l-2.197-2.028l-1.352-2.703l-2.201-2.029l-2.365-1.352l-2.369-3.042l-3.209-2.367
	l-4.733-1.858l-0.506-1.521l-2.536-3.042l-0.505-1.521l-3.551-5.409l-3.551,0.169l-4.227-2.538l-1.352-1.352l-0.337-1.859
	l0.846-2.025l2.366-1.016l-0.338-2.199l6.426-2.703l9.466-4.732l7.604-0.846l17.24-0.508l2.367,2.028l1.689,3.38l4.564-0.506
	l13.183-1.521l3.042,0.847l13.184,7.943l10.568,8.492l-5.67,5.707l-2.704,6.425l-0.506,6.593l-1.69,0.845l-1.184,2.874l-2.535,0.675
	l-2.199,3.72l-2.873,2.874l-2.367,3.549l-1.689,0.848l-3.719,3.549l-3.043,0.17l1.014,3.381l-5.24,5.746L796.699,437.469z"/>
<path id="GA" sodipodi:nodetypes="ccccccccccccccccccccccccccccccccccccccccccccccccccccccccccccccccccccccccccccc" fill="#D3D3D3" d="
	M721.822,379.999l-5.071,0.847l-8.789,1.184l-8.959,0.93v2.283l0.17,2.197l0.675,3.552l3.551,8.282l2.535,10.311l1.521,6.423
	l1.69,5.071l1.521,7.269l2.197,6.594l2.704,3.55l0.507,3.551l2.028,0.846l0.167,2.197l-1.856,5.073l-0.508,3.379l-0.169,2.028
	l1.69,4.562l0.338,5.578l-0.847,2.536l0.676,0.846l1.521,0.847l0.675,3.55l2.704,4.057l1.521,1.521l8.283,0.169l11.312-0.676
	l22.493-1.352l5.693-0.705l4.784,0.027l0.17,3.042l2.705,0.845l0.338-4.561l-1.691-4.734l1.184-1.689l6.085,0.848l5.204,0.33
	l-0.809-6.586l2.367-10.479l1.521-4.394l-0.508-2.706l3.487-6.528l-0.534-1.415l-2.001,0.736l-2.704-1.352l-0.677-2.198l-1.352-3.72
	l-2.368-2.199l-2.704-0.676l-1.69-5.071l-3.058-6.624l-4.395-2.027l-2.199-2.027l-1.352-2.705l-2.199-2.027l-2.366-1.352
	l-2.368-3.043l-3.21-2.367l-4.732-1.858l-0.508-1.521l-2.535-3.043l-0.507-1.521l-3.55-5.13l-3.551,0.168l-4.317-3.183l-1.354-1.352
	l-0.338-1.859l0.847-2.027l2.46-1.29l-1.181-1.293l0.082-0.305l-6.086,1.016l-7.267,0.845L721.822,379.999z"/>
<path id="AL" sodipodi:nodetypes="cccccccccccccccccccccccccccccccccccccccccccccccccc" fill="#D3D3D3" d="M654.887,493.757
	l-1.688-15.889l-2.874-19.608l0.169-14.704l0.846-32.453l-0.17-17.409l0.173-6.711l8.11-0.389l29.075-2.703l9.328-0.693
	l-0.154,2.282l0.17,2.199l0.676,3.55l3.549,8.282l2.536,10.311l1.521,6.424l1.69,5.072l1.521,7.269l2.199,6.592l2.704,3.551
	l0.506,3.551l2.027,0.846l0.168,2.199l-1.857,5.07l-0.507,3.381l-0.169,2.026l1.69,4.563l0.337,5.578l-0.846,2.536l0.676,0.845
	l1.52,0.847l1.082,2.65h-6.593l-7.098,0.676l-26.708,3.042l-10.886,1.472l-0.102,3.923l1.858,1.858l2.705,2.027l0.607,8.298
	l-5.794,2.689l-2.875-0.337l2.875-2.027v-1.016l-3.213-6.253l-2.365-0.675l-1.521,4.564l-1.354,2.873l-0.676-0.17h-2.871V493.757z"
	/>
<path id="NC" sodipodi:nodetypes="ccccccccccccccccccccccccccccccccccccccccccccccccccccccccccccccscccccccccccccccccccccccccccccccc" fill="#D3D3D3" d="
	M870.807,317.786l1.787,4.913l3.72,6.761l2.535,2.535l0.677,2.368l-2.537,0.168l0.847,0.675l-0.338,4.395l-2.705,1.353l-0.676,2.199
	l-1.352,3.042l-3.889,1.688l-2.535-0.337l-1.521-0.168l-1.689-1.353l0.338,1.353v1.015h2.025l0.847,1.352l-2.026,6.593h4.395
	l0.676,1.689l2.366-2.366l1.353-0.507l-2.028,3.72l-3.21,5.071h-1.352l-1.184-0.506l-2.873,0.676l-5.412,2.535l-6.761,5.578
	l-3.55,4.902l-2.027,6.762l-0.506,2.535l-4.902,0.507l-5.701,1.398l-10.398-8.577l-13.185-7.946l-3.042-0.845l-13.184,1.521
	l-4.471,0.785l-1.69-3.381l-3.105-2.213l-17.241,0.506l-7.604,0.846l-9.467,4.732l-6.425,2.705l-1.693,0.337l-6.086,1.014
	l-7.268,0.847l-7.099,0.507l0.522-4.239l1.858-1.521l2.874-0.675l0.677-3.89l4.395-2.873l4.057-1.521l4.395-3.719l4.562-2.198
	l0.676-3.212l4.058-4.057l0.675-0.168c0,0,0,1.184,0.846,1.184c0.845,0,2.026,0.337,2.026,0.337l2.368-3.719l2.197-0.677l2.367,0.34
	l1.689-3.721l3.043-2.704l0.508-2.198v-4.142l4.73,0.762l7.462-1.354l16.54-2.026l17.918-2.705l20.83-4.184l20.632-4.354
	l11.882-2.923L870.807,317.786z M874.881,352.277l2.705-2.621l3.295-2.704l1.605-0.676l0.169-2.113l-0.676-6.425l-1.521-2.451
	l-0.675-1.943l0.761-0.252l2.873,5.747l0.422,4.647l-0.169,3.551l-3.551,1.605l-2.957,2.535l-1.185,1.268L874.881,352.277z"/>
<path id="TN" sodipodi:nodetypes="ccccccccccccccccccccccccccccccccccccccsccccccccccccc" fill="#D3D3D3" d="M729.599,340.953
	l-54.259,5.24l-16.479,1.859l-4.831,0.536l-4.046-0.027v4.056l-8.788,0.506l-7.269,0.676l-11.602,0.057l-0.277,6.102l-2.237,6.561
	l-1.04,3.155l-1.411,4.58l-0.338,2.705l-4.226,2.367l1.521,3.72l-1.015,4.562l-1.012,0.825l7.586-0.203l25.185-2.025l5.578-0.17
	l8.452-0.507l29.073-2.704l10.634-0.846l8.805-1.016l8.789-1.184l5.072-0.846l-0.138-4.714l1.859-1.521l2.873-0.676l0.676-3.889
	l4.394-2.873l4.059-1.521l4.395-3.72l4.562-2.198l0.914-3.686l4.53-4.058l0.677-0.167c0,0,0,1.183,0.845,1.183
	c0.848,0,2.029,0.339,2.029,0.339l2.366-3.72l2.198-0.677l2.367,0.339l1.69-3.719l2.209-2.349l0.628-1.011l0.186-4.113l-1.55-0.301
	l-2.537,2.026l-8.282,0.17l-12.542,1.985L729.599,340.953z"/>
<path id="RI" fill="#D3D3D3" d="M914.684,193.729l-0.504-4.396l-0.846-4.564l-1.775-6.169l6-1.605l1.689,1.183l3.551,4.564
	l3.041,4.648l-3.043,1.606l-1.353-0.17l-1.184,1.859l-2.537,2.028L914.684,193.729z"/>
<path id="CT" sodipodi:nodetypes="cccccccccccccccccc" fill="#D3D3D3" d="M913.767,193.966l-0.656-4.396l-0.846-4.563l-1.69-6.254
	l-4.34,0.945l-22.819,4.986l0.676,3.465l1.521,7.606v8.452l-1.185,2.367l1.916,2.205l5.182-3.556l3.719-3.381l2.028-2.197
	l0.846,0.675l2.873-1.521l5.409-1.184L913.767,193.966z"/>
<path id="MA" sodipodi:nodetypes="ccccccccccccccccccccccccccccccccccccccccccccccccccccccccccccccc" fill="#D3D3D3" d="
	M941.771,187.485l2.272-0.717l0.479-1.792l1.074,0.119l1.075,2.39l-1.315,0.479l-4.064,0.12L941.771,187.485z M931.972,188.322
	l2.39-2.749h1.675l1.913,1.553l-2.512,1.076l-2.271,1.076L931.972,188.322z M895.587,165.332l18.254-4.395l2.368-0.675l2.197-3.381
	l3.907-1.739l3.021,4.614l-2.535,5.409l-0.339,1.521l2.029,2.704l1.184-0.844h1.856l2.368,2.704l4.057,6.253l3.719,0.508
	l2.368-1.014l1.858-1.859l-0.847-2.874l-2.198-1.691l-1.521,0.846l-1.016-1.352l0.506-0.508l2.199-0.169l1.857,0.844l2.028,2.537
	l1.015,3.042l0.337,2.537l-4.394,1.521l-4.059,2.028l-4.057,4.732l-2.025,1.521v-1.015l2.535-1.521l0.505-1.858l-0.845-3.212
	l-3.042,1.521l-0.848,1.521l0.508,2.366l-2.161,1.045l-2.872-4.732l-3.55-4.564l-2.165-1.895l-6.831,1.961l-5.324,1.1l-22.818,4.986
	l-0.42-5.169l0.675-11.072l5.408-0.929L895.587,165.332"/>
<path id="ME" sodipodi:nodetypes="ccccccccsccccccccccccccccccccccccccccccccccccccccccccccccccccccccccccccccccccccccccccccccsccccc" fill="#D3D3D3" d="
	M966.069,86.566l2.026,2.198l2.367,3.887v2.028l-2.198,4.902l-2.028,0.676l-3.549,3.211l-5.073,5.748c0,0-0.675,0-1.353,0
	c-0.675,0-1.014-2.198-1.014-2.198l-1.859,0.169l-1.014,1.521l-2.537,1.521l-1.015,1.521l1.689,1.521l-0.505,0.675l-0.508,2.875
	l-2.026-0.169v-1.691l-0.338-1.352l-1.521,0.338l-1.859-3.38l-2.198,1.352l1.353,1.521l0.336,1.184l-0.846,1.352l0.338,3.211
	l0.17,1.691l-1.689,2.704l-3.043,0.507l-0.338,3.043l-5.578,3.211l-1.353,0.507l-1.689-1.521l-3.212,3.718l1.015,3.38l-1.521,1.352
	l-0.169,4.564l-1.175,6.544l-2.574-1.209l-0.506-3.212l-4.057-1.182l-0.338-2.875l-7.605-24.51l-4.39-14.261l1.485-0.124
	l1.583,0.429V99.24l0.846-5.747l2.705-4.901l1.521-4.227l-2.027-2.536v-6.253l0.845-1.014l0.848-2.874l-0.169-1.521l-0.17-5.071
	l1.859-5.071l3.042-9.297l2.197-4.394h1.353l1.353,0.169v1.184l1.352,2.366l2.873,0.675l0.847-0.844v-1.015l4.228-3.042l1.857-1.859
	l1.521,0.169l6.253,2.535l2.027,1.015l9.466,31.27h6.254l0.846,2.028l0.168,5.071l3.043,2.366h0.846l0.168-0.507l-0.505-1.184
	L966.069,86.566z M944.183,118.088l1.604-1.606l1.438,1.099l0.59,2.535l-1.774,0.93L944.183,118.088z M951.197,111.918l1.858,1.944
	c0,0,1.352,0.084,1.352-0.253c0-0.337,0.254-2.113,0.254-2.113l0.93-0.844l-0.847-1.859l-2.112,0.761L951.197,111.918z"/>
<path id="NH" sodipodi:nodetypes="ccccccccccccccccccccccccccccccccc" fill="#D3D3D3" d="M921.72,154.626l0.908-1.125l1.141-3.441
	l-2.66-0.956l-0.506-3.211l-4.057-1.183l-0.337-2.874l-7.606-24.509l-4.812-15.206l-0.937-0.005l-0.675,1.69l-0.676-0.507
	l-1.017-1.014l-1.521,2.028l-0.05,5.261l0.326,5.925l2.026,2.873v4.227l-3.888,5.293l-2.705,1.183v1.184l1.184,1.859v8.958
	l-0.847,9.636l-0.169,5.07l1.016,1.353l-0.169,4.732l-0.506,1.859l1.521,0.926l17.136-4.903l2.367-0.676l1.604-2.668L921.72,154.626
	z"/>
<path id="VT" sodipodi:nodetypes="ccccccccccccccccccccccccccccc" fill="#D3D3D3" d="M883.604,166.443l-0.847-5.915l-2.501-10.427
	l-0.675-0.338l-3.043-1.352l0.847-3.042l-0.847-2.198l-2.823-4.851l1.016-4.057l-0.846-5.409l-2.535-6.76l-0.845-5.146l27.443-7.056
	l0.339,6.084l2.029,2.875v4.226l-3.891,4.227l-2.704,1.182v1.184l1.184,1.859v8.958l-0.846,9.635l-0.169,5.071l1.015,1.352
	l-0.168,4.733l-0.508,1.858l0.691,1.639l-7.269,1.437L883.604,166.443z"/>
<path id="NY" sodipodi:nodetypes="cccccccccccccccccccccccccccccccccccccccccccccccccccccccccccccccccccccccccccccccccccccccccccccccccccccccc" fill="#D3D3D3" d="
	M867.155,203.766l-1.183-1.014l-2.705-0.168l-2.368-2.029l-1.705-6.408l-3.615,0.095l-2.556-2.831l-20.269,4.582l-44.962,9.127
	l-7.873,1.285l-0.77-6.764l1.493-1.176l1.352-1.184l1.015-1.691l1.859-1.182l2.026-1.858l0.507-1.691l2.197-2.874l1.184-1.014
	l-0.168-1.015l-1.353-3.211l-1.859-0.169l-2.027-6.423l3.043-1.858l4.562-1.521l4.226-1.352l3.381-0.507l6.592-0.168l2.027,1.352
	l1.689,0.169l2.199-1.352l2.704-1.182l5.409-0.508l2.199-1.858l1.858-3.38l1.688-2.029h2.198l2.028-1.182l0.168-2.366l-1.521-2.198
	l-0.338-1.521l1.184-2.198v-1.521h-1.857l-1.859-0.845l-0.847-1.184l-0.168-2.704l6.083-5.748l0.678-0.844l1.519-3.043l3.043-4.732
	l2.873-3.888l2.198-2.535l2.525-1.909l3.222-1.303l5.747-1.352l3.381,0.169l4.73-1.521l7.91-2.165l0.543,5.207l2.536,6.761
	l0.846,5.409l-1.014,4.057l2.703,4.733l0.846,2.198l-0.846,3.042l3.043,1.352l0.675,0.337l3.213,11.494l-0.562,5.292l-0.507,11.325
	l0.847,5.748l0.846,3.719l1.521,7.606v8.452l-1.184,2.367l1.924,2.084l0.832,1.754l-2.027,1.859l0.337,1.352l1.353-0.338
	l1.521-1.352l2.367-2.704l1.183-0.676l1.689,0.676l2.367,0.169l8.283-4.057l3.043-2.874l1.352-1.521l4.395,1.691l-3.551,3.717
	l-4.057,3.043l-7.438,5.578l-2.705,1.014l-6.084,2.029l-4.227,1.182l-1.229-0.557l-0.256-3.856l0.508-2.873l-0.168-2.198
	l-2.942-1.776l-4.731-1.015l-4.057-1.182L867.155,203.766z"/>
<path id="NJ" fill="#D3D3D3" d="M866.681,204.715l-2.198,2.535v3.212l-2.026,3.212l-0.17,1.689l1.352,1.352l-0.168,2.537
	l-2.367,1.183l0.846,2.874l0.17,1.184l2.873,0.338l1.014,2.704l3.721,2.535l2.535,1.691v0.846l-3.381,3.211l-1.689,2.366
	l-1.521,2.874l-2.368,1.352l-1.267,0.762l-0.253,1.267l-0.637,2.726l1.142,2.346l3.381,3.043l5.07,2.368l4.227,0.676l0.169,1.521
	l-0.847,1.014l0.338,2.873h0.847l2.197-2.535l0.845-5.073l2.874-4.226l3.212-6.761l1.183-5.748l-0.675-1.184l-0.17-9.803
	l-1.689-3.55l-1.184,0.846l-2.873,0.339l-0.506-0.507l1.184-1.014l2.197-2.029l0.066-1.144l-0.404-3.59l0.508-2.873l-0.17-2.198
	l-2.704-1.184l-4.732-1.014l-4.057-1.183L866.681,204.715z"/>
<path id="PA" sodipodi:nodetypes="cccccccccccccccccccccccccccccccccccccccccccc" fill="#D3D3D3" d="M860.456,242.492l1.185-0.677
	l2.366-0.639l1.521-2.873l1.689-2.366l3.38-3.212v-0.846l-2.535-1.69l-3.721-2.536l-1.014-2.704l-2.874-0.337l-0.169-1.183
	l-0.846-2.875l2.367-1.183l0.169-2.535l-1.354-1.352l0.169-1.691l2.027-3.211v-3.211l2.451-2.535l0.224-1.132l-2.703-0.17
	l-2.367-2.029l-2.536-5.578l-3.143-0.973l-2.436-2.238l-19.438,4.224l-44.962,9.128l-9.298,1.521l-0.519-7.407l-5.735,5.887
	l-1.354,0.507l-4.394,3.146l3.043,20.009l2.594,10.173l3.734,20.14l3.418-0.667l12.488-1.572l39.656-8.015l15.554-2.952l8.679-1.696
	l0.28-0.25l2.198-1.691L860.456,242.492z"/>
<path id="DE" sodipodi:nodetypes="cccccccccccccccccccc" fill="#D3D3D3" d="M860.61,246.635l0.616-2.198l0.021-1.26l-1.328-0.092
	l-2.199,1.689l-1.521,1.521l1.52,4.395l2.368,5.916l2.198,10.142l1.691,6.592l5.238-0.169l6.423-1.268l-2.368-7.688l-1.014,0.506
	l-3.721-2.536l-1.857-4.901l-2.027-3.721l-2.367-1.014l-2.199-3.719L860.61,246.635z"/>
<path id="MD" sodipodi:nodetypes="ccccccccccccccccccccccccccccccccccccccccccccccccccsccccccccccccccccccccccccccccsccc" fill="#D3D3D3" d="
	M875.875,272.651l-6.422,1.351l-6.072,0.169l-1.927-7.423l-2.198-10.142l-2.368-5.915l-1.347-4.598l-7.848,1.697l-15.556,2.951
	l-39.158,7.896l1.184,5.24l1.015,5.916l0.338-0.338l2.199-2.536l2.365-2.737l2.537-0.645l1.521-1.521l1.857-2.705l1.354,0.676
	l3.042-0.338l2.704-2.198l2.099-1.52l1.931-0.506l1.721,1.182l3.042,1.521l2.026,1.859l1.268,1.605l4.311,1.773v3.043l5.747,1.352
	l1.197,0.566l1.477-2.121l3.014,2.062l-1.336,2.593l-0.802,4.168l-1.859,2.704v2.197l0.675,1.859l5.295,1.417l4.508-0.065
	l3.21,1.014l2.199,0.338l1.015-2.197l-1.521-2.199v-1.859l-2.535-2.197l-2.2-5.748l1.353-5.578l-0.169-2.198l-1.352-1.353
	c0,0,1.521-1.69,1.521-2.368c0-0.675,0.507-2.197,0.507-2.197l2.027-1.352l2.027-1.691l0.507,1.014l-1.521,1.69l-1.353,3.887
	l0.338,1.184l1.858,0.338l0.506,5.748l-2.198,1.014l0.337,3.72l0.508-0.168l1.184-2.029l1.688,1.859l-1.688,1.352l-0.339,3.55
	l2.704,3.55l4.057,0.506l1.691-0.845l3.383,4.374l1.419,0.561l6.957-2.924l2.099-4.206L875.875,272.651z M858.484,282.045
	l1.183,2.621l0.17,1.858l1.184,1.943c0,0,0.93-0.93,0.93-1.267s-0.762-3.211-0.762-3.211l-0.762-2.452L858.484,282.045z"/>
<path id="WV" sodipodi:nodetypes="cccccccccccccccccccccccccccccccccccccccccccscccccccccccccccccccccccccccccccccccccccccc" fill="#D3D3D3" d="
	M791.818,258.706l1.163,5.17l1.132,7.221l3.724-2.874l2.367-3.211l2.653-0.644l1.521-1.521l1.857-2.704l1.235,0.676l3.042-0.338
	l2.704-2.198l2.099-1.519l1.931-0.508l1.364,1.063l2.33,1.165l2.027,1.859l1.437,1.352l-0.151,4.884l-5.916-3.212l-4.73-1.857
	l-0.169,5.578l-0.507,2.198l-1.689,2.873l-0.677,1.691l-3.211,2.535l-0.507,2.366l-3.55,0.339l-0.338,3.211l-1.184,5.748h-2.706
	l-1.352-0.847l-1.69-2.875l-1.856,0.17l-0.339,4.564l-2.198,6.93l-5.241,11.325l0.847,1.352l-0.169,2.873l-2.199,2.028l-1.521-0.337
	l-3.38,2.535l-2.704-1.014l-1.859,4.901c0,0-3.889,0.847-4.564,1.014c-0.675,0.168-2.535-1.352-2.535-1.352l-2.535,2.368
	l-2.705,0.675l-3.043-0.846l-1.352-1.352l-2.292-3.161l-3.286-2.078l-2.704-2.873l-3.043-3.889l-0.676-2.366l-2.703-1.521
	l-0.847-1.691l-0.254-5.493l2.282-0.085l2.028-0.845l0.169-2.874l1.689-1.52l0.169-5.241l1.015-4.057l1.352-0.676l1.353,1.184
	l0.507,1.858l1.858-1.014l0.507-1.691l-1.184-1.858v-2.536l1.014-1.352l2.368-3.549l1.353-1.521l2.197,0.507l2.367-1.691l3.211-3.55
	l2.367-4.057l0.338-5.917l0.507-5.239v-4.902l-1.185-3.21l1.016-1.521l1.34-1.352l3.65,20.73l4.842-0.785L791.818,258.706z"/>
<path id="KY" sodipodi:nodetypes="cccccccccccccccccccccccccccccccccccccccccccccccccccccccccccccccccccccccccccccccccccccccc" fill="#D3D3D3" d="
	M755.455,317.102l-2.431,2.806l-4.394,3.717l-4.496,6.173l-1.858,1.857v2.199l-4.057,2.198l-5.916,3.551l-3.681,0.402l-54.232,5.12
	l-16.479,1.859l-4.832,0.536l-4.044-0.027l-0.238,4.413l-8.553,0.151l-7.268,0.676l-10.907,0.214l1.999-0.232l2.28-1.842
	l2.153-1.197l0.239-3.345l0.956-1.912l-1.678-2.655l0.838-1.994l2.367-1.859l2.199-0.675l2.872,1.353l3.72,1.353l1.183-0.338
	l0.17-2.367l-1.353-2.536l0.337-2.367l2.027-1.521l2.705-0.675l1.689-0.677l-0.846-1.857l-0.676-2.028l1.184-0.844l1.1-3.466
	l3.127-1.775l6.083-1.014l3.721-0.507l1.521,2.029l1.858,0.845l1.859-3.378l3.043-1.521l2.025,1.691l0.848,1.184l2.197-0.508
	l-0.169-3.549l3.042-1.691l1.184-0.845l1.184,1.689h4.902l0.846-2.197l-0.338-2.367l3.041-3.72l4.902-4.057l0.506-4.732l2.873-0.337
	l4.057-1.858l2.873-2.028l-0.337-2.028l-1.521-1.521l0.592-2.282l4.31-0.254l2.535-0.845l3.043,1.691l1.69,4.564l6.084,0.337
	l1.858,1.858l2.198,0.169l2.535-1.521l3.212,0.508l1.352,1.52l2.873-2.704l1.859-1.352h1.689l0.675,2.875l1.859,1.015l2.532,2.315
	l0.169,5.747l0.846,1.69l2.705,1.521l0.675,2.367l3.043,3.887l2.704,2.874L755.455,317.102z"/>
<path id="OH" sodipodi:nodetypes="cccccccccccccccccccccccccccccccccccccccccccccccccccccccccccccccc" fill="#D3D3D3" d="
	M765.549,209.606l-6.372,4.237l-4.056,2.367l-3.551,3.887l-4.226,4.057l-3.38,0.846l-3.042,0.506l-5.746,2.704l-2.198,0.17
	l-3.551-3.211l-5.41,0.676l-2.704-1.521l-2.49-1.412l-5.116,0.734l-10.65,1.691l-8.113,1.267l1.354,15.297l1.856,14.366l2.706,24.51
	l0.59,5.051l4.311-0.135l2.535-0.847l3.517,1.571l2.165,4.564l5.374-0.017l1.978,2.215l1.843-0.067l2.654-1.402l2.617,0.389
	l2.066,1.521l1.806-2.231l2.453-1.352l2.164-0.711l0.676,2.873l1.857,1.014l3.637,2.45l2.281-0.083l1.198-1.202l-0.067-1.45
	l1.691-1.521l0.167-5.242l1.017-4.057l1.589-1.505l1.591,0.944l0.861,1.267l1.266-0.185l-0.441-2.521l-0.588-0.673V276.9
	l1.015-1.352l2.365-3.551l1.354-1.521l2.199,0.507l2.366-1.691l3.211-3.55l2.367-4.057l0.219-5.679l0.508-5.239v-4.902l-1.185-3.21
	l1.015-1.521l0.963-0.999l-1.469-10.292L765.549,209.606z"/>
<path id="MI" sodipodi:nodetypes="ccccccccccccccsccccccccccccccccsccccccccccccccccccccccccccccccccccccccccccccccccccccccccccccccccccccccccccccccccccccccccccccccccccccccccccccccccccccccccccccccccccccccccccccccccccccccccccccccccccccccccccccccc" fill="#D3D3D3" d="
	M608.902,91.509l1.913-2.152l2.271-0.836l5.618-4.064l2.391-0.597l0.478,0.478l-5.38,5.378l-3.466,2.032l-2.151,0.957
	L608.902,91.509z M699.006,125.102l0.676,2.62l3.381,0.169l1.352-1.267c0,0-0.085-1.521-0.422-1.691
	c-0.338-0.169-1.689-1.943-1.689-1.943l-2.283,0.254l-1.69,0.168l-0.337,1.184L699.006,125.102z M730.442,191.026l-3.38-8.621
	l-2.368-9.465l-2.535-3.381l-2.704-1.859l-1.69,1.184l-4.058,1.859l-2.027,5.239l-2.873,3.888l-1.184,0.675l-1.521-0.675
	c0,0-2.705-1.521-2.535-2.199c0.168-0.675,0.504-5.24,0.504-5.24l3.552-1.352l0.845-3.55l0.677-2.704l2.535-1.691l-0.338-10.479
	l-1.69-2.366l-1.353-0.846l-0.845-2.197l0.845-0.845l1.69,0.337l0.169-1.69l-2.534-2.366l-1.353-2.704h-2.705l-4.731-1.521
	l-5.748-3.55h-2.873l-0.675,0.677l-1.015-0.507l-3.212-2.368l-3.042,1.859l-3.041,2.366l0.337,3.72l1.015,0.337l2.198,0.507
	l0.507,0.846l-2.706,0.845l-2.704,0.339l-1.521,1.859l-0.337,2.198l0.337,1.69l0.338,5.748l-3.72,2.198l-0.675-0.17v-4.395
	l1.352-2.535l0.676-2.536l-0.846-0.846l-2.028,0.846l-1.015,4.395l-2.873,1.182l-1.857,2.028l-0.17,1.015l0.676,0.846l-0.676,2.704
	l-2.367,0.507v1.184l0.846,2.535l-1.182,6.423l-1.691,4.226l0.675,4.902l0.508,1.183l-0.847,2.535l-0.337,0.846l-0.338,2.873
	l3.72,6.253l3.042,6.76l1.521,5.072l-0.847,4.901l-1.014,6.254l-2.537,5.409l-0.338,2.873l-3.408,3.226l4.61-0.169l22.395-2.367
	l7.608-1.032l0.102,1.743l7.166-1.268l10.767-1.571l4.029-0.482l0.146-0.614l0.169-1.521l2.197-3.888l2.092-1.816l-0.232-5.283
	l1.67-1.669l1.141-0.358l0.231-3.719l1.606-3.169l1.1,0.633l0.17,0.676l0.845,0.169l2.028-1.015L730.442,191.026z M594.132,121.992
	l0.748-0.608l2.875-0.845l3.719-2.366v-1.015l0.676-0.675l6.253-1.014l2.536-2.028l4.562-2.198l0.168-1.352l2.028-3.042l1.858-0.845
	l1.354-1.859l2.366-2.366l4.564-2.535l4.9-0.507l1.184,1.184l-0.337,1.014l-3.888,1.014l-1.521,3.211l-2.367,0.846l-0.507,2.536
	l-2.535,3.38l-0.338,2.704l0.846,0.507l1.015-1.184l3.72-3.042l1.354,1.352h2.365l3.381,1.015l1.521,1.184l1.521,3.211l2.873,2.873
	l4.057-0.168l1.521-1.015l1.69,1.352l1.69,0.507l1.353-0.844h1.183l1.69-1.015l4.225-3.719l3.552-1.182l6.93-0.338l4.731-2.028
	l2.705-1.352l1.521,0.169v5.916l0.506,0.337l3.043,0.845l2.026-0.507l6.425-1.691l1.184-1.182l1.521,0.507v7.268l3.378,3.212
	l1.354,0.675l1.353,1.015l-1.353,0.337l-0.847-0.337l-3.888-0.508l-2.199,0.677l-2.366-0.169l-3.381,1.521h-1.857l-6.085-1.352
	l-5.408,0.169l-2.029,2.704l-7.267,0.677l-2.537,0.845l-1.183,3.212l-1.353,1.182l-0.506-0.169l-1.521-1.69l-4.731,2.536h-0.677
	l-1.183-1.691l-0.846,0.169l-2.028,4.564l-1.014,4.227l-3.327,7.32l-1.231-1.083l-1.433-1.078l-2.03-10.756l-3.705-1.433
	l-2.146-2.39l-12.673-2.87l-2.984-1.076l-8.604-2.271l-8.252-1.195L594.132,121.992z"/>
<path id="WY" sodipodi:nodetypes="ccccccccccccccccccc" fill="#D3D3D3" d="M371.173,156.039l-11.031-0.844l-33.55-3.445
	l-16.972-2.151l-29.642-4.303l-20.797-3.107l-1.483,11.686l-4.014,25.365l-5.498,31.793l-1.6,10.995l-1.746,12.432l6.821,0.97
	l27.06,2.614l21.507,2.412l38.458,4.303l24.907,2.991l4.709-46.207l1.506-26.534L371.173,156.039z"/>
<path id="MT" sodipodi:nodetypes="cccccccccccccccccccccccccccccccccccccccccccccccccccccccc" fill="#D3D3D3" d="M373.702,133.557
	l0.676-11.659l2.362-25.917c0.478-5.258,1.132-8.858,1.435-16.112l0.982-15.215l-32.074-2.936l-30.593-3.718l-30.595-4.226
	l-33.806-5.578l-19.27-3.55l-34.216-7.249l-4.684,22.321l3.586,7.888l-1.435,4.781l1.913,4.781l3.346,1.435l4.832,11.261
	l2.817,3.322l0.478,1.195l3.585,1.195l0.479,2.151l-7.41,18.406v2.63l2.631,3.347h0.955l5.021-3.107l0.717-1.195l1.674,0.717
	l-0.24,5.498l2.869,13.147l3.107,2.629l0.956,0.717l1.912,2.39l-0.478,3.585l0.718,3.586l1.195,0.956l2.392-2.39h2.868l3.346,1.674
	l2.63-0.957h4.302l3.825,1.673l2.868-0.478l0.478-3.108l3.108-0.717l1.435,1.435l0.479,3.347l1.859,1.427l1.604-12.092l21.635,3.107
	l29.472,4.135l17.307,1.984l32.88,3.613l11.49,1.593l1.1-16.131L373.702,133.557z"/>
<path id="ID" sodipodi:nodetypes="cccccccccccccccccccccccccccccccccccccccccccccccccccccccccccccccccccccccccc" fill="#D3D3D3" d="
	M148.179,190.369l4.629-18.3l4.542-18.526l1.435-4.421l2.63-6.215l-1.314-2.39l-2.63,0.119l-0.836-1.076l0.478-1.195l0.358-3.227
	l4.661-5.737l1.913-0.479l1.194-1.194l0.598-3.347l0.957-0.717l4.064-6.096l4.063-4.542l0.24-3.944l-3.586-2.75l-1.375-4.601
	l0.418-10.101l3.823-17.21l4.661-21.753l3.944-14.104l0.796-3.976l13.588,2.643l-4.348,22.489l3.083,8.056l-1.099,4.781l2.079,4.781
	l3.346,1.77l4.663,10.253l2.818,3.993l0.646,1.194l3.585,1.195l0.479,2.655l-7.243,17.568l0.335,3.468l2.798,3.01l1.962,0.503
	l5.02-3.779l0.382-0.524l0.162,0.886l0.265,4.324l2.701,13.482l3.611,2.798l0.454,0.885l2.247,2.559l-0.812,2.914l0.717,3.921
	l2.034,0.957l2.223-1.72l2.701-0.503l3.514,1.674l2.63-0.621l3.967-0.167l4.161,1.673l2.869-0.311l0.98-2.436l2.604-1.724
	l0.763,1.77l0.646,2.34l2.415,2.655l-3.945,25.073l-5.378,30.332l-4.35-0.333l-8.559-1.602l-10.254-1.913l-12.717-2.486
	l-13.099-2.618l-8.868-1.924l-9.681-1.744l-9.657-1.865C146.642,190.376,155.491,191.941,148.179,190.369z"/>
<path id="WA" sodipodi:nodetypes="ccccccccccccccccccccccccccccccccccccccccccccccccccccccccccccccccccccccccccccccccccccccccccscccccc" fill="#D3D3D3" d="
	M98.611,12.362l4.564,1.521l10.143,2.873l8.958,2.028l20.96,5.917l24.001,5.916l15.852,3.55l-1.05,4.061l-4.28,14.439l-4.66,21.753
	l-3.323,16.876l-0.369,9.807l-13.782-4.072l-16.279-3.537l-14.29,0.624l-1.653-1.602l-5.569,1.983l-4.158-0.261l-2.845-1.841
	l-1.651,0.549l-4.396-0.239l-1.96-1.435l-4.995-1.816l-1.508-0.217l-5.212-1.386l-1.864,1.576l-5.951-0.358l-5.04-3.967l0.213-0.837
	l0.071-8.295l-2.222-4.064l-4.303-0.765l-0.381-2.461l-2.628-0.656l-3.013-0.56l-1.859,1.015l-2.368-3.043l0.339-3.042l2.873-0.337
	l1.69-4.227l-2.705-1.184l0.169-3.887l4.564-0.676l-2.875-2.874l-1.521-7.437l0.675-3.043v-8.283l-1.858-3.381l2.366-9.803
	l2.199,0.507l2.535,3.042l2.874,2.704l3.379,2.028l4.733,2.198l3.211,0.677l3.042,1.521l3.551,1.015l2.366-0.169V28.25l1.352-1.183
	l2.199-1.352l0.336,1.184l0.339,1.859l-2.368,0.507l-0.337,2.198l1.859,1.521l1.184,2.535l0.675,2.029l1.521-0.17l0.169-1.352
	l-1.015-1.352l-0.507-3.381l0.845-1.859l-0.676-1.521v-2.366l1.859-3.718l-1.185-2.705l-2.535-5.071l0.337-0.846L98.611,12.362z
	 M88.725,18.613l2.113-0.169l0.506,1.436l1.606-1.69h2.452l0.846,1.606l-1.606,1.775l0.676,0.845l-0.762,2.113l-1.437,0.422
	c0,0-0.929,0.085-0.929-0.253s1.521-2.704,1.521-2.704l-1.775-0.592l-0.338,1.521l-0.761,0.676l-1.606-2.366L88.725,18.613z"/>
<path id="TX" sodipodi:nodetypes="ccccccccccccccccccccccccccccccccccccccccccccccccccccccccccccccccccccccccccccccccccccccccccccccccccccccccccccccccccccccccccccccccccccccccccccccccccccccccccccccccccccccccccccccccccccccccc" fill="#D3D3D3" d="
	M374.102,354.278l23.725,1.136l32.511,1.195l-2.442,24.525l-0.311,18.98l0.07,2.176l4.543,3.992l1.814,0.859l1.893,0.264
	l0.719-1.312l0.931,0.904l1.815,0.503l1.678-0.763l1.19,0.428l-0.31,3.561l4.47,1.076l2.797,0.858l4.135,0.549l2.293,1.913
	l3.396-1.648l2.915,0.382l2.127,2.913l1.123,0.335l-0.167,2.055l3.229,1.222l2.895-1.888l1.577,0.381l2.461,0.168l0.454,1.957
	l4.853,2.08l2.777-0.215l2.079-4.302h0.356l1.196,1.983l4.64,1.053l3.489,1.266l3.443,0.789l2.248-0.789l0.884-2.629h3.871
	l1.982,0.788l3.204-1.647h0.691l0.379,1.17h4.471l2.513-1.313l1.744,0.311l1.48,1.958l3.012,1.744l3.681,1.125l2.868,1.482
	l2.559,1.696l3.443-0.932l2.027,1.026l0.535,10.603l0.351,10.144l0.718,9.968l0.548,4.231l2.799,4.809l1.123,4.25l4.039,6.576
	l0.573,3.011l0.55,1.054l-0.719,7.837l-2.771,4.589l1.001,2.989l-0.38,2.631l-0.887,7.648l-1.435,2.844l0.632,4.587l-5.923,1.657
	l-10.311,4.732l-1.014,2.025l-2.705,2.029l-2.199,1.521l-1.353,0.846l-5.915,5.577l-2.873,2.198l-5.578,3.38l-5.916,2.535
	l-6.593,3.551l-1.858,1.521l-6.085,3.719l-3.55,0.676l-4.057,5.747l-4.228,0.338l-1.014,2.027l2.368,2.027l-1.521,5.746
	l-1.352,4.733l-1.185,4.057l-0.847,4.732l0.847,2.535l1.858,7.269l1.015,6.423l1.858,2.875l-1.014,1.52l-3.212,2.027l-5.915-4.057
	l-5.748-1.184l-1.352,0.507l-3.378-0.676l-4.395-3.213l-5.409-1.183l-7.947-3.55l-2.197-4.057l-1.352-6.761l-3.381-2.028
	l-0.675-2.366l0.675-0.677l0.338-3.55l-1.352-0.676l-0.676-1.014l1.352-4.564l-1.689-2.366l-3.379-1.353l-3.55-4.563l-3.72-6.931
	l-4.396-2.704l0.169-2.028l-5.577-12.847l-0.846-4.393l-1.858-2.027l-0.169-1.521l-6.253-5.578l-2.704-3.212v-1.183l-2.704-2.198
	l-7.1-1.185l-7.776-0.676l-3.211-2.367l-4.732,1.858l-3.72,1.521l-2.367,3.379l-1.014,3.89l-4.564,6.424l-2.535,2.535l-2.704-1.015
	l-1.859-1.184l-2.027-0.675l-4.059-2.368v-0.675l-1.857-2.027l-5.409-2.198l-7.776-8.113l-2.366-4.902v-8.451l-3.381-6.761
	l-0.506-2.867l-1.689-1.014l-1.186-2.199l-5.239-2.197l-1.352-1.69l-7.438-8.282l-1.352-3.381l-4.901-2.366l-1.521-4.564
	l-2.704-3.042l-2.029-0.505l-0.678-4.894l8.367,0.72l30.359,2.869l30.357,1.672l2.392-24.858l4.063-58.088l1.675-19.603l1.434,0.03
	 M478.843,598.891l-0.591-7.437l-2.873-7.522l-0.59-7.352l1.605-8.62l3.465-7.184l3.635-5.662l3.295-3.719l0.675,0.252l-4.987,6.932
	l-4.564,6.846l-2.112,6.931l-0.338,5.408l0.929,6.424l2.705,7.521l0.507,5.41l0.168,1.521L478.843,598.891z"/>
<path id="CA" sodipodi:nodetypes="ccccccccccccccccccccccccccccccccccccccccccccccccccccccccccccccccccccccccccccccccccccccccccccccccccccccccccccccccccccccccccccccccccccccccccscc" fill="#D3D3D3" d="
	M143.747,410.092l3.989-0.512l1.553-2.102l0.765-2.029l-3.321-0.095l-1.15-1.846l0.814-1.793l-0.048-6.43l2.319-1.389l2.82-2.7
	l0.43-5.14l1.722-3.655l2.031-2.2l3.418-1.792l1.338-0.764l0.79-1.549l-0.909-0.936l-1.004-1.58l-0.98-5.591l-3.036-5.475
	l0.101-2.915l-2.302-3.396l-15.683-24.287l-20.318-30.024l-23.449-34.538l-13.281-20.436l1.879-7.537l7.123-27.132l8.485-32.869
	l-12.928-3.49l-14.103-3.586l-13.147-4.303l-7.888-2.152l-11.952-3.107l-7.374-2.522l-1.652,4.94l-0.169,7.776l-5.409,12.339
	l-3.21,2.705l-0.339,1.183l-1.859,0.846l-1.521,4.394l-0.846,3.38l2.875,4.395l1.69,4.395l1.183,3.719l-0.338,6.762l-1.859,3.211
	l-0.675,6.085l-1.015,3.887l1.859,4.057l2.874,4.733l2.367,5.07l1.352,4.227l-0.337,3.38l-0.337,0.507v2.198L31,261.006
	l-0.507,2.536l-0.675,2.368l-0.675,2.027l0.169,8.621l2.198,3.887l2.028,2.704l2.874,0.507l1.014,2.875l-1.184,3.719l-2.199,1.69
	h-1.182l-0.846,4.057l0.507,3.043l3.38,4.564l1.689,5.577l1.521,4.901l1.352,3.211l3.551,6.085l1.521,2.705l0.506,3.043l1.691,1.014
	v2.535l-0.846,2.029l-1.859,7.436l-0.507,2.027l2.537,2.874l4.394,0.505l4.733,1.859l4.057,2.198h3.043l3.042,3.211l2.704,5.071
	l1.183,2.368l4.057,2.198l5.071,0.847l1.521,2.197l0.677,3.38l-1.521,0.676l0.338,1.014l3.379,0.847l2.873,0.168l3.043,4.902
	l4.057,4.394l0.845,2.367l2.705,4.395l0.338,3.379v9.805l0.507,1.859l10.479,1.52l20.623,2.875L143.747,410.092z M51.792,358.108
	l1.352,1.604l-0.17,1.354l-3.38-0.085l-0.592-1.269l-0.675-1.52L51.792,358.108z M53.819,358.108l1.267-0.676l3.719,2.198
	l3.212,1.267l-0.93,0.675l-4.733-0.252l-1.69-1.689L53.819,358.108z M75.456,378.815l1.858,2.45l0.846,1.016l1.605,0.591
	l0.591-1.521l-1.014-1.858l-2.789-2.113l-1.099,0.168L75.456,378.815L75.456,378.815z M73.935,387.857l1.858,3.295l1.268,2.027
	l-1.521,0.254l-1.352-1.269c0,0-0.762-1.521-0.762-1.943s0-2.282,0-2.282L73.935,387.857z"/>
<path id="AZ" sodipodi:nodetypes="ccccccccccccccccccccccccccccccccccccccccccccccccccc" fill="#D3D3D3" d="M144.799,410.872
	l-2.747,2.257l-0.337,1.521l0.506,1.015l19.776,11.155l12.678,7.946l15.381,8.956l17.578,10.48l12.845,2.535l26.274,2.829
	l2.646-13.077l3.924-28.485l7.282-55.291l4.452-32.378l-25.719-3.848l-28.447-4.781l-34.952-6.604l-3.055,18.916l-0.479,0.479
	l-1.792,2.749l-2.631-0.119l-1.314-2.869l-2.869-0.358l-0.957-1.194h-0.956l-0.957,0.595l-2.03,1.075l-0.119,7.292l-0.24,1.795
	l-0.595,13.146l-1.554,2.271l-0.597,3.465l2.868,5.14l1.315,6.095l0.837,1.076l1.075,0.596l-0.121,2.391l-1.672,1.435l-3.585,1.793
	l-2.032,2.031l-1.553,3.823l-0.596,5.14l-2.989,2.867l-2.151,0.72l-0.12,6.095l-0.478,1.794l0.478,0.836l3.825,0.598l-0.598,2.868
	l-1.554,2.271L144.799,410.872z"/>
<path id="NV" sodipodi:nodetypes="ccccccccccccccccccccccccccccccccccccc" fill="#D3D3D3" d="M147.843,191.376l21.936,4.716
	l10.16,2.032l9.681,1.913l6.916,1.708l-0.585,6.131l-3.705,18.119l-4.279,20.891l-2.032,10.162l-2.271,13.887l-3.298,17.163
	l-3.681,16.4l-2.058,10.646l-2.579,17.535l-0.478,1.149l-1.121,2.581l-1.958-0.119l-1.148-2.867l-2.867-0.528l-1.46-1.025
	l-2.131,0.335l-0.957,0.765l-1.36,1.411l-0.456,7.293l-0.577,1.793l-0.43,12.645l-1.38,1.792l-1.961-2.365l-15.182-23.785
	l-20.318-30.358l-23.785-35.378l-12.946-19.429l1.71-6.866l7.291-27.131l8.248-32.777l35.138,8.515l14.342,3.107"/>
<path id="UT" sodipodi:nodetypes="ccccccccccccccccccccccccccc" fill="#D3D3D3" d="M265.275,329.115l-25.767-3.633l-27.774-5.115
	l-35.368-6.295l1.66-9.575l3.347-15.896l3.464-17.33l2.271-14.224l2.032-9.323l3.943-21.394l3.706-18.288l1.164-5.826l13.297,2.361
	l12.549,2.151l10.756,1.913l8.727,1.435l3.845,0.501l-1.553,11.115l-2.417,13.773l8.164,0.97l17.155,1.887l8.585,0.896
	l-2.227,22.968l-3.347,23.595l-3.924,29.095l-1.742,11.612L265.275,329.115z"/>
<path id="CO" sodipodi:nodetypes="ccccccccccccccc" fill="#D3D3D3" d="M396.652,274.21l1.505-22.252l-33.558-3.203l-25.579-2.823
	l-38.963-4.303L278.425,239l-2.75,23.187l-3.346,23.425l-3.925,29.261l-1.574,11.613l-0.262,2.89l35.473,3.968l39.46,4.463
	l33.417,3.309l17.365,0.886"/>
<path id="NM" sodipodi:nodetypes="ccccccccccccccccccccc" fill="#D3D3D3" d="M296.385,456.401L295.706,450l9.039,0.548l30.862,3.203
	l29.687,1.504l2.055-23.35l3.896-58.423l1.17-20.274l2.105,0.366l-0.014-11.578l-33.672-2.513l-38.622-4.629l-36.036-4.302
	l-4.392,32.159l-7.283,55.627l-3.923,28.15l-2.142,13.915l16.165,2.08l1.352-10.479l17.409,2.704L296.385,456.401z"/>
<path id="OR" sodipodi:nodetypes="cccccccccccccccccccccccccccccccccccccccccccccccccccccccccc" fill="#D3D3D3" d="M147.475,190.451
	l4.494-18.717l4.878-18.694l1.099-4.421l2.461-5.879l-0.644-1.216l-2.63-0.048l-1.34-1.747l0.479-1.531l0.526-3.395l4.661-5.737
	l1.913-1.15l1.195-1.195l1.553-3.729l4.231-5.927l3.727-4.038l0.239-3.608l-3.418-2.582l-1.264-4.715l-13.841-3.916L140.018,94.5
	l-16.135,0.12l-0.479-1.435l-5.737,2.152l-4.661-0.599l-2.509-1.673l-1.315,0.717l-4.9-0.239l-1.793-1.435l-5.498-2.151
	l-0.837,0.119l-4.542-1.553l-2.032,1.912l-6.455-0.359l-6.214-4.302l0.717-0.837l0.24-8.127l-2.389-4.064l-4.303-0.598l-0.718-2.63
	l-2.461-0.487l-6.062,2.153l-2.368,6.76l-3.379,10.48l-3.38,6.761l-5.239,14.705l-6.762,14.199l-8.452,13.185l-2.028,3.043
	l-0.845,8.958l-1.352,6.254l2.832,3.688l7.036,2.354l12.12,3.443l8.225,2.655l12.98,3.8l13.935,3.753l13.769,3.728"/>
<path id="ND" sodipodi:nodetypes="cccccccccccccccccccc" fill="#D3D3D3" d="M493.562,139.197l-0.381-7.838l-2.08-7.649
	l-1.913-14.271l-0.478-10.279l-2.08-3.25l-1.673-5.595V79.558l0.718-4.064l-2.21-5.75l-29.721-0.59l-19.439-0.675l-27.72-1.352
	l-26.083-1.97l-1.318,14.879l-1.435,15.776l-2.362,26.084l-0.509,11.523l59.406,3.936L493.562,139.197z"/>
<path id="SD" sodipodi:nodetypes="cccccccccccccccccccccccccccccccccccccccccc" fill="#D3D3D3" d="M495.121,218.151l-0.996-1.13
	l-1.59-3.792l1.912-3.87l1.099-5.809l-2.7-2.151l-0.311-2.869l0.621-3.133l2.248-0.838l0.311-5.997l-0.071-31.458l-0.646-3.107
	l-4.301-3.754l-1.027-2.08v-2.008l1.982-1.338l1.602-1.938l0.192-2.843l-59.999-1.673l-58.735-4.064l-0.801,5.52l-1.687,16.591
	l-1.406,18.766l-1.674,25.718l16.757,1.076l20.533,1.194l18.813,1.363l24.86,1.363l11.234-0.814l2.99,2.391l4.516,3.108l1.027,0.79
	l3.703-0.933l4.231-0.31l2.868-0.072l3.254,1.267l4.755,1.504l3.275,1.841l0.646,2.008l0.956,1.984l0.738-0.503H495.121z"/>
<path id="NE" sodipodi:nodetypes="ccccccccccccccccccccccccccccccccccccc" fill="#D3D3D3" d="M507.089,263.957l1.436,2.797
	l0.097,2.223l2.462,3.896l2.844,3.295h-5.28l-45.464-0.98l-42.646-0.932l-22.155-1.004l1.12-22.299l-34.9-2.869l4.542-46.016
	l16.256,1.076l21.034,1.194l18.645,1.196l24.861,1.196l11.235-0.479l2.151,2.39l5.02,3.107l1.198,0.957l4.542-1.435l4.065-0.479
	l2.867-0.239l1.913,1.435l5.258,1.674l3.108,1.673l0.479,1.673l0.957,2.153h1.911l0.835,0.048l1.026,5.449l2.868,8.391l1.291,4.854
	l2.223,3.991l0.548,5.164l1.504,4.469l0.576,6.766"/>
<path id="IA" sodipodi:nodetypes="cccccccccccccccccccccccccccccccccccccccccccccccccccccccccccccc" fill="#D3D3D3" d="
	M593.193,216.528l0.178,2.031l2.392,1.191l1.193,1.314l0.359,1.319l4.065,3.348l0.719,2.272l-0.838,2.993l-1.555,3.706l-0.836,2.867
	l-2.273,1.677l-1.794,0.597l-5.733,1.553l-0.72,2.387l-0.835,2.388l0.598,1.435l1.794,1.793l-0.002,3.827l-2.268,1.674l-0.479,1.555
	v2.631l-1.558,0.478l-1.792,1.433l-0.476,1.552l0.476,1.796l-1.437,1.26l-2.398-2.814l-1.551-2.746l-8.722,0.835l-10.634,0.598
	l-26.178,0.719l-13.629,0.24l-9.802,0.239l-1.374,0.127l-1.729-4.675l-0.24-6.932l-1.674-4.303l-0.719-5.498l-2.39-3.825
	l-0.956-5.02l-2.868-7.888l-1.196-5.618l-1.435-2.271l-1.673-2.87l1.911-4.542l1.434-5.978l-2.868-2.151l-0.478-2.868l0.955-2.629
	h1.793h12.072l51.872-0.718l20.782-0.717l1.938,2.873l1.915,2.742l0.476,0.84l-1.913,2.874l0.476,4.414l2.631,4.064l3.104,1.906
	l2.516,0.241L593.193,216.528z"/>
<path id="MS" sodipodi:nodetypes="ccccccccccccccccccccccccccccccccccccccccccccccccccccc" fill="#D3D3D3" d="M653.801,493.964
	l-0.266,1.313h-5.41l-1.521-0.847l-2.198-0.337l-7.1,2.028l-1.859-0.847l-2.705,4.395l-1.152,0.812l-1.174-2.602l-1.198-4.063
	l-3.586-3.347l1.196-7.889l-0.717-0.956l-1.913,0.239l-8.605,0.718l-25.337,0.719l-0.478-1.674l0.717-8.367l3.588-6.454l5.497-9.563
	l-0.955-2.151h1.194l0.72-3.347l-2.391-1.913l0.24-1.912l-2.152-4.779l-0.299-5.589l1.435-2.778l-0.418-4.543l-1.434-3.106
	l1.434-1.435l-1.434-2.153l0.478-1.912l0.956-6.454l3.108-2.868l-0.718-2.152l3.822-5.499l2.868-0.955v-2.631l-0.717-1.435
	l2.867-5.497l2.868-1.197l0.112-3.567l9.07-0.079l25.186-2.029l4.789-0.239l0.01,6.663l0.168,17.408l-0.844,32.453l-0.17,14.704
	l2.873,19.608L653.801,493.964z"/>
<path id="IN" sodipodi:nodetypes="ccccccccccccccccccccccccccccccccccccccccccccccccccc" fill="#D3D3D3" d="M647.383,320.276
	l0.066-2.988l0.507-4.731l2.367-3.043l1.857-4.057l2.705-4.395l-0.506-6.085l-1.859-2.873l-0.338-3.38l0.847-5.747l-0.506-7.268
	l-1.354-16.734l-1.352-16.057l-1.016-12.254l3.211,0.929l1.521,1.014l1.185-0.338l2.198-2.028l2.958-1.691l5.324-0.169l22.989-2.366
	l5.827-0.558l1.573,16.684l4.445,38.519l0.626,6.035l-0.389,2.366l1.284,1.877l0.103,1.436l-2.637,1.674l-3.701,1.622l-3.349,0.575
	l-0.626,5.089l-4.782,3.462l-2.925,4.192l0.339,2.486l-0.608,1.603h-3.478l-1.658-1.69l-2.606,1.32l-2.806,1.572l0.168,3.194
	l-1.248,0.27l-0.488-1.064l-2.267-1.571l-3.397,1.402l-1.623,3.143l-1.504-0.845l-1.521-1.674l-4.668,0.508l-5.848,1.014
	L647.383,320.276z"/>
<path id="IL" sodipodi:nodetypes="ccccccccccccccccccccccccccccccccccccccccccccccccccccccccccccccccccccccccccccccccccccc" fill="#D3D3D3" d="
	M646.738,321.059v-3.769l0.27-5.088l2.486-3.281l1.858-3.938l2.705-4.039l-0.389-5.491l-2.097-3.704l-0.102-3.5l0.727-5.511
	l-0.863-7.505l-1.114-16.498l-1.354-15.702l-0.964-12.169l-0.283-0.963l-0.847-2.705l-1.353-3.887l-1.69-1.859l-1.521-2.705
	l-0.242-5.74l-10.354,1.373l-28.446,1.793l-9.083-0.448l0.238,2.48l2.391,0.717l0.957,1.195l0.478,1.912l4.064,3.586l0.718,2.389
	l-0.718,3.586l-1.913,3.825l-0.719,2.629l-2.39,1.913l-1.912,0.717l-5.498,1.435l-0.717,1.913l-0.721,2.152l0.721,1.434l1.91,1.673
	l-0.239,4.302l-1.911,1.674l-0.718,1.673v2.868l-1.912,0.478l-1.675,1.197l-0.239,1.435l0.239,2.152l-1.793,1.374l-1.076,2.928
	l0.478,3.825l2.392,7.649l7.648,7.889l5.735,3.825l-0.238,4.542l0.955,1.435l6.691,0.478l2.868,1.435l-0.717,3.824l-2.391,6.215
	l-0.719,3.346l2.391,4.064l6.693,5.497l4.779,0.719l2.152,5.258l2.151,3.347l-0.956,3.109l1.674,4.302l1.913,2.152l2.031-0.828
	l0.719-2.263l2.13-1.503l3.383-1.151l3.23,1.233l3.007,1.114l0.827-0.22l-0.068-1.297l-1.114-2.894l0.458-2.485l2.385-1.638
	l2.465-1.032l1.216-0.439l-0.608-1.384l-0.794-2.266l1.302-1.319L646.738,321.059z"/>
<path id="MN" sodipodi:nodetypes="cccccccccccccccccccccccccccccccccccccccccccccccccccccccccccccccccccccccccccccccccccccccccccc" fill="#D3D3D3" d="
	M494.161,140.037l-0.478-8.845l-1.912-7.65l-1.913-14.104l-0.478-10.279l-1.912-3.585l-1.675-5.259V79.558l0.72-4.064l-1.904-5.701
	l31.506,0.037l0.338-8.621l0.676-0.169l2.367,0.507l2.027,0.846l0.848,5.748l1.519,6.423l1.69,1.689h5.072l0.337,1.521l6.594,0.338
	v2.198h5.07l0.338-1.352l1.184-1.184l2.368-0.675l1.352,1.014h3.043l4.057,2.705l5.578,2.535l2.535,0.507l0.506-1.014l1.521-0.507
	l0.506,3.043l2.705,1.352l0.506-0.507l1.353,0.169v2.198l2.705,1.014h3.211l1.688-0.846l3.381-3.38l2.704-0.507l0.846,1.859
	l0.507,1.352h1.015l1.016-0.845l9.297-0.337l1.859,3.211h0.675l0.746-1.134l4.643-0.388l-0.641,2.384l-4.117,1.921l-9.667,4.246
	l-4.991,2.099l-3.21,2.705l-2.537,3.719l-2.367,4.056l-1.858,0.846l-4.732,5.239l-1.352,0.17l-4.017,3.067l-2.945,3.305
	l-0.239,3.105l0.237,8.133l-1.669,1.672l-5.5,4.302l-1.915,5.978l2.634,3.813l0.479,2.635l-1.2,3.11l-0.237,3.826l0.479,7.407
	l3.582,4.293h3.112l2.625,2.397l3.347,1.428l3.826,5.265l7.411,5.252l1.913,2.155l0.244,5.753l-21.526,0.718l-62.995,0.48
	l-0.354-37.304l-0.479-3.107l-4.302-3.585l-1.196-1.913v-1.674l2.151-1.673l1.435-1.435L494.161,140.037z"/>
<path id="WI" sodipodi:nodetypes="cccccccccccccccccccccccccccccccccccccccccccccccccccccccccccccccccccccccccccccccccccccccccccc" fill="#D3D3D3" d="
	M641.652,211.878l0.387-3.105l-1.689-4.733l-0.676-6.423l-1.185-2.535l1.015-3.212l0.847-3.043l1.521-2.704l-0.677-3.549
	l-0.675-3.72l0.505-1.858l2.028-2.536l0.169-2.874l-0.848-1.352l0.677-2.704l0.505-3.38l2.873-5.916l3.043-7.1l0.169-2.366
	l-0.338-1.014l-0.845,0.507l-4.395,6.592l-2.874,4.226l-2.028,1.859l-0.846,2.366l-1.521,0.845l-1.182,2.028l-1.521-0.337
	l-0.17-1.859l1.354-2.535l2.198-4.902l1.857-1.69l1.152-2.396l-1.705-0.946l-1.434-1.434l-1.675-10.757l-3.825-1.196l-1.433-2.391
	l-13.146-2.868l-2.632-1.195l-8.604-2.391l-8.604-1.195l-4.36-5.651l-0.552,1.319l-1.184-0.17l-0.676-1.183l-2.874-0.845
	l-1.183,0.169l-1.859,1.014l-1.015-0.675l0.675-2.028l2.028-3.211l1.184-1.184l-2.026-1.521l-2.199,0.845l-3.043,2.028l-7.775,3.38
	l-3.043,0.675l-3.041-0.507l-1.026-0.918l-2.213,2.965l-0.24,2.869v8.844l-1.196,1.673l-5.497,4.064l-2.391,6.215l0.478,0.24
	l2.631,2.152l0.718,3.347l-1.913,3.347v4.064l0.479,6.932l3.106,3.107h3.587l1.911,3.347l3.588,0.479l4.063,5.976l7.411,4.303
	l2.15,2.869l0.957,7.768l0.719,3.467l2.391,1.673l0.238,1.435l-2.15,3.585l0.239,3.347l2.63,4.064l2.631,1.196l3.106,0.479
	l1.405,1.442h9.592l27.254-1.555L641.652,211.878z"/>
<path id="MO" sodipodi:nodetypes="ccccccccccccccccccccccccccccccccccccccccccccccccccccccccccccccccc" fill="#D3D3D3" d="
	M581.896,266.61l-2.637-3.228l-1.195-2.391l-8.126,0.718l-10.279,0.478l-26.534,0.956l-14.103,0.24l-8.247,0.119l-2.391,0.119
	l1.314,2.63l-0.24,2.39l2.632,4.065l3.228,4.302l3.227,2.867l2.39,0.24l1.436,0.957v3.107l-1.913,1.675l-0.478,2.389l2.151,3.588
	l2.63,3.107l2.631,1.913l1.435,12.191l-0.719,36.931l0.239,4.902l0.479,5.629l24.501-0.122l24.265-0.717l21.753-0.839l12.187-0.239
	l2.268,3.582l-0.716,3.46l-3.229,2.51l-0.599,1.922l5.624,0.478l4.074-0.717l1.796-5.744l0.68-6.123l2.424-2.116l1.791-1.554
	l2.152-1.077l0.118-2.989l0.601-1.793l-1.078-1.828l-2.871,0.151l-2.268-2.744l-1.437-4.422l0.841-2.635l-2.033-3.584l-1.915-4.785
	l-5.018-0.835l-7.287-5.855l-1.798-4.3l0.836-3.347l2.154-6.334l0.48-2.994l-2.038-1.078l-7.167-0.834l-1.074-1.79l-0.115-4.422
	l-5.737-3.588l-7.295-8.125l-2.391-7.649l-0.239-4.418L581.896,266.61z"/>
<path id="AR" sodipodi:nodetypes="ccccccccccccccccccccccccccccccccccccccccccccc" fill="#D3D3D3" d="M618.661,366.385l-4.024,0.98
	l-6.454-0.478l0.719-3.107l3.347-2.869l0.478-2.391l-1.911-3.108l-11.477,0.479l-21.754,0.956l-24.381,0.718l-24.381,0.479
	l1.673,7.17v8.604l1.435,11.476l0.24,39.562l2.389,2.032l3.108-1.435l2.867,1.195l0.452,10.794l23.929-0.15l19.724-0.838
	l10.583-0.205l1.197-2.188l-0.299-3.711l-1.909-3.107l1.674-1.553l-1.674-2.627l0.717-2.624l1.431-5.86l2.634-2.156l-0.718-2.388
	l3.824-5.617l2.868-1.431l-0.118-1.562l-0.362-1.908l2.985-5.854l2.514-1.314l0.401-3.586l1.851-1.297l0.896-4.426l-1.402-4.195
	l4.225-2.485l0.576-2.111l1.291-4.463L618.661,366.385z"/>
<path id="OK" sodipodi:nodetypes="ccccccccccccccccccccccccccccccccccccccccccccccccccccccccccccccccc" fill="#D3D3D3" d="
	M393.225,342.983l-11.174-0.479l-6.724-0.506l0.27,0.207l-0.736,10.897l22.966,1.471l33.517,1.363l-2.441,25.532l-0.478,18.645
	l0.24,1.675l4.542,3.824l2.151,1.196l0.72-0.24l0.717-2.151l1.434,1.912h2.154v-1.434l2.866,1.434l-0.477,4.064l4.302,0.238
	l2.63,1.198l4.302,0.717l2.63,1.912l2.391-2.151l3.587,0.717l2.629,3.588h0.956v2.39l2.391,0.718l2.39-2.391l1.912,0.719h2.631
	l0.956,2.631l5.021,1.912l1.435-0.72l1.911-4.302h1.197l1.195,2.152l4.303,0.719l3.825,1.434l3.107,0.956l1.912-0.956l0.717-2.631
	h4.544l2.151,0.957l2.869-2.152h1.194l0.721,1.673h4.3l1.675-2.151l1.913,0.479l2.151,2.63l3.347,1.912l3.346,0.956l2.028,1.17
	l-0.406-38.914l-1.435-11.476l-0.169-9.276l-1.504-6.836l-0.812-7.508l-0.071-3.989l-12.69,0.333l-48.525-0.478l-47.091-2.152
	L393.225,342.983z"/>
<path id="KS" sodipodi:nodetypes="ccccccccccccccccccccc" fill="#D3D3D3" d="M527.1,345.659l-13.193,0.215l-48.191-0.479
	l-46.588-2.152l-25.752-1.316l4.333-67.669l22.827,0.836l42.312,1.435l46.135,0.479h5.329l3.395,3.373l2.895,0.239l0.93,1.124v2.101
	l-1.911,1.675l-0.479,2.724l2.321,3.754l2.629,3.277l2.631,2.079l1.1,11.688L527.1,345.659z"/>
<path id="LA" sodipodi:nodetypes="cccccccccccccccccccccccccccccccccccccccccccccccccscccccccccccccccccccccccccccccscccccccccccccccccccccccccccc" fill="#D3D3D3" d="
	M630.424,500.263l-1.075-2.734l-1.196-3.234l-3.466-3.702l0.957-7.058l-0.123-1.195l-1.32,0.358l-8.604,0.955l-26.168,0.479
	l-0.717-2.506l0.954-8.841l3.466-6.216l5.26-9.086l-0.599-2.507l1.313-0.713l0.479-2.041l-2.39-2.149l-0.117-2.031l-1.914-4.544
	l-0.477-6.212l-10.168,0.118l-20.08,0.957l-23.218,0.029l0.03,10.009l0.717,9.801l0.72,4.065l2.63,4.301l0.956,5.259l4.541,5.737
	l0.24,3.345l0.718,0.719l-0.719,8.845l-3.107,5.259l1.674,2.151l-0.719,2.629l-0.718,7.65l-1.434,3.346l0.128,3.781l4.901-1.591
	l8.451-0.338l10.818,3.72l6.761,1.184l3.888-1.521l3.381,1.185l3.38,1.014l0.845-2.198l-3.379-1.184l-2.705,0.507l-2.873-1.69
	c0,0,0.168-1.353,0.847-1.521c0.676-0.168,3.21-1.015,3.21-1.015l1.859,1.521l1.859-1.015l3.377,0.675l1.521,2.536l0.339,2.367
	l4.732,0.338l1.858,1.858l-0.847,1.688l-1.352,0.848l1.689,1.688l8.788,3.721l3.72-1.352l1.015-2.537l2.704-0.675l1.859-1.521
	l1.353,1.015l0.845,3.043l-2.366,0.846l0.675,0.675l3.551-1.353l2.366-3.551l0.848-0.506l-2.199-0.338l0.847-1.689l-0.169-1.521
	l2.197-0.507l1.184-1.352l0.676,0.846c0,0-0.169,3.211,0.675,3.211c0.848,0,4.395,0.675,4.395,0.675l4.227,2.027l1.014,1.521h3.043
	l1.184,1.016l2.367-3.213v-1.521h-1.353l-3.551-2.874l-6.084-0.846l-3.38-2.366l1.184-2.873l2.367,0.337l0.168-0.675l-1.858-1.016
	v-0.506h3.38l1.858-3.212l-1.352-2.026l-0.338-2.873l-1.521,0.168l-2.027,2.197l-0.676,2.705l-3.21-0.675l-1.016-1.859l1.859-2.028
	l2.112-1.857L630.424,500.263z"/>
<path id="VA" sodipodi:nodetypes="ccccccccccccccccccccccccccccccccccccccccccccccccccccccccccccccccccccccccccccccccccc" fill="#D3D3D3" d="
	M867.461,287.227l-0.151-2.035l6.747-2.667l-0.807,3.365l-3.054,3.951l-0.437,4.795l0.483,3.546l-1.911,5.206l-2.263,2.003
	l-1.54-4.853l0.467-5.697l1.659-4.374L867.461,287.227z M869.848,316.819l-60.828,13.148l-39.134,5.52l-6.982-0.393l-2.703,2.015
	l-7.675,0.232l-8.764,1.022l-9.334,0.994l8.865-5.173l-0.013-2.169l1.591-2.244l11.033-12.025l4.128,4.683l3.954,1.008l2.66-1.191
	l2.337-1.373l2.653,1.407l4.092-1.495l1.962-4.764l2.722,0.564l2.984-2.228l1.881,0.514l2.955-3.844l0.366-2.178l-1.009-1.333
	l1.05-1.952l5.514-12.837l0.643-5.996l1.285-0.546l2.278,2.554l4.115-0.315l2.018-7.916l2.923-0.588l1.098-2.866l2.697-2.454
	l1.325-2.449l1.572-3.507l0.089-5.296l10.271,3.996c0.712,0.357,0.684-5,0.684-5l4.236,1.439l-0.483,2.749l8.527,3.071l1.352,1.875
	l-0.907,3.852l-1.322,1.386l-0.529,1.825l0.517,2.513l2.048,1.337l4.097,1.509l3.084,1.014l5.075,0.983l2.251,2.183l3.334,0.421
	l0.907,1.255l-0.457,4.902l1.436,1.155l-0.502,2.019l1.286,0.826l-0.233,1.448l-2.815-0.099l0.093,1.69l2.385,1.613l0.127,1.477
	l1.853,1.867l0.514,2.638l-2.671,1.444l1.644,1.562l6.065-1.763L869.848,316.819z"/>
<path id="DC" sodipodi:nodetypes="cccccc" fill="#D3D3D3" d="M839.075,271.124l-1.126-1.712l-1.062-0.88l1.151-1.69l2.333,1.581
	L839.075,271.124z"/>
</svg>
